PathFileType	4	(X/Y/Z)	s05c0401.trc
DataRate	CameraRate	NumFrames	NumMarkers	Units	OrigDataRate	OrigDataStartFrame	OrigNumFrames
200	200	5	50	mm	200	1000	2000
Frame#	Time	racr			lacr			c7			jug			rlel			rdr			llel			ldr			s2			lic			ric			lasi			rasi			rpsi			lpsi			rgt			lgt			rth1			rth2			rth3			rth4			rlfc			rmfc			rsh1			rsh2			rsh3			rsh4			rlmal			rmmal			rcal			rtoe			rmt5			lth1			lth2			lth4			lth3			llfc			lmfc			lsh1			lsh2			lsh3			lsh4			llmal			lmmal			lcal			ltoe			lmt5			SBIKE			LBIKE			RBIKE			
		X1	Y1	Z1	X2	Y2	Z2	X3	Y3	Z3	X4	Y4	Z4	X5	Y5	Z5	X6	Y6	Z6	X7	Y7	Z7	X8	Y8	Z8	X9	Y9	Z9	X10	Y10	Z10	X11	Y11	Z11	X12	Y12	Z12	X13	Y13	Z13	X14	Y14	Z14	X15	Y15	Z15	X16	Y16	Z16	X17	Y17	Z17	X18	Y18	Z18	X19	Y19	Z19	X20	Y20	Z20	X21	Y21	Z21	X22	Y22	Z22	X23	Y23	Z23	X24	Y24	Z24	X25	Y25	Z25	X26	Y26	Z26	X27	Y27	Z27	X28	Y28	Z28	X29	Y29	Z29	X30	Y30	Z30	X31	Y31	Z31	X32	Y32	Z32	X33	Y33	Z33	X34	Y34	Z34	X35	Y35	Z35	X36	Y36	Z36	X37	Y37	Z37	X38	Y38	Z38	X39	Y39	Z39	X40	Y40	Z40	X41	Y41	Z41	X42	Y42	Z42	X43	Y43	Z43	X44	Y44	Z44	X45	Y45	Z45	X46	Y46	Z46	X47	Y47	Z47	X48	Y48	Z48	X49	Y49	Z49	X50	Y50	Z50	
1000	5.0000	795.001922	1298.493357	-174.654637	761.149300	1308.281656	-493.337015	779.406936	1398.230187	-347.716980	726.427372	1234.125362	-334.154403	600.237050	1158.992274	14.816648	687.493516	959.754887	-58.310698	513.993099	1147.458043	-603.611110	665.528113	966.762424	-514.361621	199.482263	1278.711700	-247.426549	327.829476	1260.031126	-403.649428	361.589807	1261.295567	-120.616832	369.795503	1196.603544	-374.503841	375.398505	1191.514281	-152.560103	249.654093	1315.061618	-209.489611	245.100720	1316.710760	-293.459373	278.310957	1135.080105	-90.770083	246.762995	1175.402667	-425.693627	332.962777	1029.311497	-85.120329	387.302262	959.055044	-90.182794	397.947763	871.770771	-93.776288	418.430429	973.559413	-103.660338	439.415311	728.929080	-118.843826	422.507232	734.023145	-227.256844	342.750081	687.334713	-87.315649	280.034699	625.655098	-99.728796	198.170606	599.857866	-98.870003	295.247732	604.474087	-128.523193	84.022200	528.717889	-106.990908	110.841390	537.337281	-189.856841	19.089722	571.216380	-151.502761	144.702448	302.912506	-162.015653	77.449923	377.084847	-92.338816	307.538967	1043.869204	-447.130630	369.026768	984.311384	-443.779514	400.894066	1001.174880	-431.214033	391.342927	896.513067	-441.744166	449.552050	762.011338	-413.004443	433.489329	749.008994	-306.497117	379.974265	653.006614	-442.576086	366.760541	566.959441	-432.829708	311.207736	497.607679	-433.755999	395.499631	556.628278	-409.334517	267.429410	382.608692	-429.740625	295.980330	396.452769	-353.443948	199.545150	360.104316	-387.596701	472.958557	250.650763	-408.080233	359.734776	261.472952	-466.705002	-219.822176	912.653530	-275.414312	-53.504489	79.093673	-475.141364	-53.479943	79.269940	-77.440870	
1001	5.0050	795.041932	1299.782104	-173.182433	761.600668	1309.215578	-492.298570	779.581666	1399.091277	-346.298015	726.963351	1235.039292	-333.103838	599.726771	1158.959289	15.002976	687.651094	959.792240	-57.750295	514.468504	1147.712783	-602.640759	665.737115	966.565527	-514.088652	199.139635	1277.097236	-249.020448	328.746986	1257.549308	-405.276735	360.594097	1261.946500	-121.872200	370.455956	1194.071460	-375.156842	375.024707	1191.991376	-153.151735	248.850356	1314.181030	-211.461307	244.828909	1314.840353	-296.002462	279.546326	1135.551756	-90.841853	246.572450	1172.085737	-426.003957	336.836927	1030.843160	-85.493502	392.834828	962.177960	-90.525768	405.070029	874.928187	-93.998940	423.443010	976.936163	-104.262095	448.539112	733.170584	-118.983733	430.805903	737.974328	-227.072484	351.029681	692.770898	-87.417510	287.370423	631.978779	-99.980832	205.186884	607.396108	-99.115247	302.482183	610.480075	-128.517688	90.298714	538.268359	-107.120403	117.318241	546.559680	-190.026506	25.916719	581.550645	-151.728001	148.434931	311.917732	-162.181225	82.009051	386.935432	-92.552147	305.494145	1039.496694	-446.928299	365.348065	978.383894	-442.995865	397.634147	994.504706	-430.659208	385.455758	889.992154	-440.611580	440.787879	755.099584	-411.393426	423.732853	742.262922	-305.270275	372.572067	645.129499	-441.627016	360.794790	558.982140	-432.016793	306.499415	488.669150	-433.430417	389.405912	549.192991	-408.142942	264.429899	373.471577	-429.460358	293.031865	387.911073	-353.479389	196.557559	351.679317	-387.592646	469.033670	239.416355	-407.846135	356.004367	251.552087	-466.481590	-219.848329	912.619978	-275.487318	-53.503720	79.075900	-475.140490	-53.487927	79.254856	-77.437167	
1002	5.0100	795.155193	1301.067239	-171.666556	762.160491	1310.461265	-491.101634	779.688449	1399.898487	-344.773692	727.433055	1235.944974	-331.880285	599.249008	1159.079537	15.390555	687.812023	959.913918	-57.296169	515.276417	1148.135106	-601.602446	665.986051	966.347777	-513.858635	198.821262	1275.389448	-250.897237	329.722652	1254.905095	-406.044397	359.513741	1262.470590	-123.148326	371.164673	1191.601019	-375.651349	374.621770	1192.363621	-153.673132	248.008115	1313.146566	-213.646827	244.771297	1312.794261	-298.359129	280.529467	1136.020813	-91.114423	246.638147	1168.673542	-426.447426	340.676884	1032.561495	-85.795023	398.240417	965.050802	-90.725940	413.182901	877.935158	-94.191271	428.460960	980.731909	-104.581966	457.984283	737.661893	-119.203840	439.972954	741.943285	-227.169685	359.314015	698.461859	-87.701721	295.170620	638.408256	-100.384778	212.759750	614.903223	-99.786957	310.218340	616.752083	-128.698358	97.212411	547.658400	-107.371179	124.381573	555.488934	-190.270052	33.567583	591.827614	-152.249386	152.876480	320.590383	-162.323991	87.301488	396.452262	-92.806372	303.554608	1034.989090	-446.901429	361.759133	972.374067	-442.410621	394.404265	987.697703	-430.083608	379.492679	883.461430	-439.636419	431.524948	748.159592	-410.162569	413.286474	735.477881	-304.422693	364.927043	637.239121	-441.056446	354.483635	551.017376	-431.350652	301.367432	479.709554	-433.214755	382.910319	541.728004	-407.033675	260.860884	364.672427	-429.325381	289.684135	379.929162	-353.564367	193.117533	343.545786	-387.606361	464.492893	228.474481	-407.590221	351.688711	241.933413	-466.270091	-219.865026	912.604745	-275.594356	-53.501200	79.043779	-475.154800	-53.482284	79.264142	-77.468094	
1003	5.0150	795.227867	1302.261541	-170.082162	762.751179	1311.883057	-489.709761	779.754593	1400.906589	-343.093657	727.878344	1237.091709	-330.510890	598.685596	1159.209070	16.066428	687.944752	960.133102	-56.933537	516.149278	1148.642168	-600.562386	666.297752	966.157029	-513.715830	198.472652	1273.541549	-252.900796	330.858006	1252.220547	-407.282513	358.446183	1263.062035	-124.446651	372.100960	1189.021463	-376.144548	374.145374	1192.821434	-154.234553	247.157748	1311.887714	-215.754885	244.905924	1310.528088	-301.329875	281.454780	1136.513411	-91.398488	246.901417	1165.268600	-426.896588	344.210547	1034.340787	-85.983914	403.553609	968.184859	-90.590066	420.786437	881.589676	-93.955082	433.471636	984.675575	-104.398336	467.673214	742.586951	-119.396577	449.506740	746.558202	-227.145927	368.442454	704.050618	-88.072543	303.529858	644.905739	-100.852182	220.814371	622.397225	-100.581851	318.464512	623.088606	-129.012793	104.752477	556.643359	-107.730393	131.885918	564.216131	-190.754121	41.206651	601.269838	-152.465698	157.803186	328.926595	-162.529878	93.249773	405.488852	-93.069286	301.840495	1030.501351	-447.045894	358.128155	966.428072	-441.955263	391.117088	980.760077	-429.652399	373.402913	877.041921	-438.858914	422.195029	741.093809	-408.941429	402.556004	728.738304	-303.818756	357.054888	629.423375	-440.566322	347.837898	543.051871	-430.888584	295.854410	470.999202	-433.226732	376.021012	534.335829	-406.008943	256.703093	356.188829	-429.306871	285.962114	372.501004	-353.695484	189.088817	335.791854	-387.769660	459.411694	217.877803	-407.370646	346.784332	232.556617	-466.081261	-219.861301	912.596239	-275.665609	-53.508645	79.042120	-475.186738	-53.487458	79.287677	-77.463307	
1004	5.0200	795.391293	1303.463578	-168.434712	763.457170	1313.550044	-488.172672	779.833481	1401.991746	-341.272370	728.320644	1238.227461	-329.141266	598.432772	1159.318082	16.800704	688.069176	960.290070	-56.835559	517.164298	1149.423330	-599.537957	666.619399	966.010664	-513.696223	198.208277	1271.535693	-255.162109	332.094634	1249.539503	-408.424376	357.393786	1263.383118	-125.673571	373.070279	1186.567919	-376.595237	373.616389	1193.207531	-154.850494	246.391727	1310.365876	-218.134518	245.139233	1308.090809	-303.514094	282.093358	1137.162370	-91.782652	247.380125	1161.771689	-427.429232	347.484348	1036.127828	-85.900166	408.669018	971.537298	-89.933571	428.140864	885.440322	-93.464184	438.251533	988.789533	-103.743233	477.453057	747.802100	-119.669357	459.617814	751.488321	-227.487777	377.850472	709.921110	-88.384339	312.268432	651.456130	-101.414549	229.575120	629.765805	-101.341576	327.127270	629.342449	-129.384939	112.822426	565.262974	-108.058912	139.797240	572.622975	-191.107615	49.799616	610.568631	-152.934760	163.475311	337.066006	-162.678120	99.762083	414.349768	-93.390426	300.266459	1026.106157	-447.427076	354.514549	960.319559	-441.676942	387.474785	973.704458	-430.422435	367.202908	870.590839	-438.434958	412.581559	733.916448	-408.112538	391.465723	721.880919	-303.622398	348.897237	621.715981	-440.278399	340.822782	535.225906	-430.425382	289.876799	462.452655	-433.371202	368.739364	527.071172	-405.171468	251.941395	348.168400	-429.345060	281.890870	365.620660	-353.869346	184.558634	328.495675	-387.854429	453.697201	207.527301	-407.107134	341.285855	223.485566	-465.921848	-219.843423	912.590408	-275.722752	-53.486041	79.028090	-475.187893	-53.471119	79.255370	-77.482827	
